if (_typeface_js && _typeface_js.loadFace) _typeface_js.loadFace({"glyphs":{"S":{"x_min":52,"x_max":700,"ha":760,"o":"m 52 320 l 154 331 q 190 203 162 249 q 273 129 219 157 q 393 102 326 102 q 542 148 489 102 q 596 270 596 195 q 576 347 596 314 q 518 401 557 380 q 350 460 479 422 q 186 529 235 494 q 110 617 137 563 q 83 737 83 670 q 160 934 83 857 q 371 1011 238 1011 q 529 975 461 1011 q 635 871 598 939 q 676 714 673 804 l 572 704 q 514 848 563 801 q 374 895 464 895 q 235 854 283 895 q 187 748 187 813 q 222 654 187 687 q 380 587 257 621 q 549 529 500 553 q 662 428 624 490 q 700 281 700 366 q 660 125 700 195 q 551 19 620 56 q 385 -17 482 -17 q 145 73 234 -17 q 52 320 55 164 "},"/":{"x_min":-0.859375,"x_max":317.5,"ha":317,"o":"m 0 -17 l 236 1011 l 317 1011 l 80 -17 l 0 -17 "},"K":{"x_min":84,"x_max":758,"ha":760,"o":"m 84 0 l 84 994 l 192 994 l 192 501 l 597 994 l 743 994 l 401 590 l 758 0 l 615 0 l 325 501 l 192 344 l 192 0 l 84 0 "},"7":{"x_min":52,"x_max":579,"ha":633,"o":"m 52 864 l 52 981 l 579 981 l 579 886 q 371 487 460 732 q 268 0 281 241 l 166 0 q 205 290 168 124 q 308 607 243 457 q 450 864 374 758 l 52 864 "},"d":{"x_min":37,"x_max":550,"ha":633,"o":"m 456 0 l 456 89 q 386 10 428 37 q 293 -17 343 -17 q 113 81 189 -17 q 37 359 37 180 q 70 567 37 482 q 161 694 104 653 q 287 736 217 736 q 378 709 336 736 q 449 637 421 683 l 449 994 l 550 994 l 550 0 l 456 0 m 140 358 q 188 150 140 218 q 301 83 236 83 q 411 148 364 83 q 458 345 458 213 q 411 566 458 496 q 293 636 364 636 q 185 569 230 636 q 140 358 140 502 "},",":{"x_min":96.203125,"x_max":217,"ha":317,"o":"m 103 0 l 103 139 l 217 139 l 217 0 q 193 -126 217 -80 q 124 -197 169 -172 l 96 -144 q 142 -96 126 -128 q 159 0 157 -63 l 103 0 "},"Y":{"x_min":3,"x_max":751,"ha":760,"o":"m 317 0 l 317 421 l 3 994 l 134 994 l 294 693 q 378 525 342 604 q 467 701 414 603 l 626 994 l 751 994 l 425 421 l 425 0 l 317 0 "},"E":{"x_min":90,"x_max":698,"ha":760,"o":"m 90 0 l 90 994 l 679 994 l 679 877 l 198 877 l 198 573 l 648 573 l 648 456 l 198 456 l 198 117 l 698 117 l 698 0 l 90 0 "},"y":{"x_min":18,"x_max":559,"ha":570,"o":"m 71 -277 l 60 -162 q 116 -173 93 -173 q 168 -160 148 -173 q 203 -120 189 -147 q 242 0 207 -111 l 18 720 l 125 720 l 249 306 q 292 140 272 228 q 332 303 309 224 l 458 720 l 559 720 l 335 -12 q 265 -202 291 -154 q 208 -271 240 -250 q 135 -292 175 -292 q 71 -277 106 -292 "},"\"":{"x_min":52,"x_max":351,"ha":404,"o":"m 79 642 l 52 831 l 52 994 l 166 994 l 166 831 l 140 642 l 79 642 m 263 642 l 237 831 l 237 994 l 351 994 l 351 831 l 323 642 l 263 642 "},"g":{"x_min":35,"x_max":555,"ha":633,"o":"m 55 -59 l 153 -77 q 193 -163 159 -135 q 287 -192 227 -192 q 392 -160 353 -192 q 445 -66 431 -128 q 454 93 454 -28 q 380 23 421 46 q 290 0 340 0 q 115 89 184 0 q 35 365 35 192 q 70 567 35 481 q 162 695 105 654 q 291 736 220 736 q 386 710 343 736 q 463 633 429 684 l 463 720 l 555 720 l 555 97 q 527 -139 555 -68 q 439 -250 500 -209 q 290 -292 377 -292 q 114 -230 176 -292 q 55 -59 52 -168 m 138 372 q 184 165 138 230 q 299 100 231 100 q 414 163 367 100 q 462 367 462 227 q 413 569 462 503 q 294 636 364 636 q 185 569 232 636 q 138 372 138 503 "},"e":{"x_min":39,"x_max":583.6875,"ha":633,"o":"m 477 232 l 580 216 q 486 41 554 100 q 319 -17 419 -17 q 116 78 194 -17 q 39 353 39 173 q 117 637 39 539 q 315 736 195 736 q 507 639 430 736 q 583 360 583 543 l 583 328 l 142 328 q 198 144 148 206 q 320 83 248 83 q 477 232 432 83 m 148 428 l 478 428 q 437 568 471 522 q 315 636 389 636 q 200 579 247 636 q 148 428 152 523 "},"J":{"x_min":31,"x_max":479,"ha":570,"o":"m 31 282 l 128 298 q 163 142 132 184 q 249 100 194 100 q 317 121 287 100 q 356 175 346 142 q 371 308 371 219 l 371 994 l 479 994 l 479 316 q 419 58 479 133 q 249 -17 359 -17 q 91 50 143 -17 q 31 282 31 128 "},"|":{"x_min":105,"x_max":193,"ha":296,"o":"m 105 -293 l 105 1011 l 193 1011 l 193 -293 l 105 -293 "},"^":{"x_min":31,"x_max":506,"ha":534,"o":"m 133 468 l 31 468 l 227 1011 l 309 1011 l 506 468 l 405 468 l 267 872 l 133 468 "},"q":{"x_min":38,"x_max":549,"ha":633,"o":"m 449 -276 l 449 75 q 382 8 425 34 q 298 -17 340 -17 q 115 83 192 -17 q 38 366 38 183 q 103 630 38 525 q 287 736 168 736 q 385 707 342 736 q 459 623 427 679 l 459 720 l 549 720 l 549 -276 l 449 -276 m 141 361 q 189 151 141 220 q 306 83 238 83 q 413 149 366 83 q 459 346 459 215 q 410 567 459 495 q 293 640 361 640 q 186 572 232 640 q 141 361 141 504 "},"b":{"x_min":73,"x_max":586,"ha":633,"o":"m 166 0 l 73 0 l 73 994 l 173 994 l 173 639 q 245 712 204 688 q 335 736 285 736 q 461 694 404 736 q 552 569 518 653 q 586 364 586 485 q 509 82 586 181 q 329 -17 432 -17 q 237 9 278 -17 q 166 89 195 36 l 166 0 m 164 364 q 184 197 164 252 q 242 112 205 141 q 325 83 280 83 q 435 152 387 83 q 483 360 483 222 q 436 569 483 502 q 323 636 390 636 q 213 566 261 636 q 164 364 164 496 "},"D":{"x_min":85,"x_max":759,"ha":822,"o":"m 85 0 l 85 994 l 366 994 q 525 975 470 994 q 648 888 596 951 q 729 729 700 825 q 759 502 759 633 q 709 215 759 333 q 582 49 660 98 q 379 0 504 0 l 85 0 m 193 117 l 366 117 q 525 151 471 117 q 609 261 580 185 q 648 503 648 362 q 606 741 648 655 q 501 857 565 828 q 363 877 458 877 l 193 877 l 193 117 "},"ⁿ":{"x_min":45,"x_max":371,"ha":415,"o":"m 45 545 l 45 996 l 117 996 l 117 949 q 233 1006 163 1006 q 316 980 283 1006 q 360 918 349 955 q 371 819 371 882 l 371 545 l 292 545 l 292 817 q 275 898 292 873 q 218 924 258 924 q 124 790 124 924 l 124 545 l 45 545 "},"z":{"x_min":22,"x_max":545,"ha":570,"o":"m 22 0 l 22 99 l 400 625 q 286 621 335 621 l 44 621 l 44 720 l 528 720 l 528 639 l 206 182 l 144 99 q 271 105 212 105 l 545 105 l 545 0 l 22 0 "},"w":{"x_min":1,"x_max":810,"ha":822,"o":"m 181 0 l 1 720 l 104 720 l 197 304 l 232 150 l 263 298 l 356 720 l 460 720 l 548 302 l 578 165 l 612 303 l 712 720 l 810 720 l 627 0 l 522 0 l 427 431 l 405 554 l 286 0 l 181 0 "},"$":{"x_min":39,"x_max":579,"ha":633,"o":"m 282 -143 l 282 -21 q 153 24 200 -8 q 75 121 106 57 q 39 276 44 185 l 140 299 q 191 138 152 189 q 282 82 231 88 l 282 470 q 149 533 215 485 q 81 620 106 564 q 56 751 56 676 q 84 890 56 827 q 159 985 113 953 q 282 1028 205 1018 l 282 1086 l 342 1086 l 342 1028 q 448 992 405 1020 q 520 911 491 963 q 559 783 549 859 l 456 764 q 342 925 439 900 l 342 572 q 430 542 410 551 q 507 486 474 521 q 559 399 540 451 q 579 282 579 347 q 510 68 579 150 q 342 -20 442 -13 l 342 -143 l 282 -143 m 282 926 q 190 870 224 915 q 156 755 156 825 q 282 588 156 635 l 282 926 m 342 82 q 437 142 398 90 q 477 276 477 193 q 448 384 477 344 q 342 454 419 424 l 342 82 "},"\\":{"x_min":0,"x_max":317,"ha":317,"o":"m 235 -17 l 0 1011 l 81 1011 l 317 -17 l 235 -17 "},"~":{"x_min":48,"x_max":617,"ha":665,"o":"m 48 377 l 48 516 q 202 598 107 598 q 270 586 233 598 q 376 538 307 574 q 473 507 438 507 q 537 525 506 507 q 617 599 581 553 l 617 456 q 463 379 547 379 q 400 387 430 379 q 310 429 370 396 q 193 470 237 470 q 127 451 159 470 q 48 377 95 433 "},"-":{"x_min":36,"x_max":343,"ha":379,"o":"m 36 298 l 36 421 l 343 421 l 343 298 l 36 298 "},"Q":{"x_min":52,"x_max":847.328125,"ha":886,"o":"m 710 106 q 847 14 784 43 l 815 -77 q 641 44 726 -37 q 441 -17 551 -17 q 151 139 262 -17 q 52 495 52 280 q 105 775 52 657 q 246 952 159 893 q 442 1011 333 1011 q 639 950 550 1011 q 779 773 727 889 q 832 498 832 657 q 800 274 832 375 q 710 106 768 174 m 471 274 q 625 180 564 243 q 721 499 721 287 q 684 716 721 627 q 584 851 648 805 q 443 898 519 898 q 242 796 322 898 q 163 496 163 695 q 243 197 163 299 q 443 96 324 96 q 552 122 500 96 q 445 179 502 162 l 471 274 "},"M":{"x_min":85,"x_max":864,"ha":949,"o":"m 85 0 l 85 994 l 247 994 l 440 290 l 479 143 q 522 302 493 197 l 718 994 l 864 994 l 864 0 l 760 0 l 760 831 l 522 0 l 425 0 l 189 847 l 189 0 l 85 0 "},"C":{"x_min":54,"x_max":775,"ha":822,"o":"m 666 349 l 775 316 q 649 65 739 148 q 430 -17 559 -17 q 236 38 317 -17 q 105 215 156 93 q 54 503 54 337 q 105 781 54 667 q 243 953 156 895 q 439 1011 331 1011 q 642 937 557 1011 q 761 723 727 864 l 655 692 q 437 898 600 898 q 295 856 355 898 q 200 726 236 814 q 165 503 165 638 q 236 197 165 299 q 428 96 308 96 q 580 158 516 96 q 666 349 644 221 "},"[":{"x_min":79,"x_max":300,"ha":317,"o":"m 79 -276 l 79 994 l 300 994 l 300 894 l 179 894 l 179 -176 l 300 -176 l 300 -276 l 79 -276 "},"L":{"x_min":81,"x_max":590,"ha":633,"o":"m 81 0 l 81 994 l 189 994 l 189 117 l 590 117 l 590 0 l 81 0 "},"!":{"x_min":100,"x_max":224,"ha":317,"o":"m 130 247 l 100 773 l 100 994 l 224 994 l 224 773 l 195 247 l 130 247 m 105 0 l 105 139 l 219 139 l 219 0 l 105 0 "}," ":{"x_min":0,"x_max":0,"ha":317},"{":{"x_min":31,"x_max":354,"ha":380,"o":"m 31 416 q 96 440 69 416 q 134 507 123 463 q 146 677 146 552 q 151 841 147 801 q 184 950 158 907 q 235 996 203 982 q 321 1011 267 1011 l 353 1011 l 353 905 l 335 905 q 259 880 278 905 q 240 766 240 855 q 232 529 240 579 q 196 425 221 461 q 124 360 172 388 q 211 266 183 329 q 240 54 240 203 q 245 -120 240 -95 q 270 -171 251 -156 q 336 -186 288 -186 l 354 -186 l 354 -292 l 322 -292 q 234 -277 264 -292 q 187 -235 205 -262 q 154 -146 161 -197 q 146 41 147 -95 q 134 213 146 167 q 96 280 122 258 q 31 305 69 303 l 31 416 "},"X":{"x_min":5,"x_max":752,"ha":760,"o":"m 5 0 l 319 517 l 42 994 l 170 994 l 319 739 q 383 617 365 660 q 448 730 409 670 l 612 994 l 730 994 l 444 525 l 752 0 l 619 0 l 413 354 q 378 419 396 383 q 339 346 351 366 l 134 0 l 5 0 "},"P":{"x_min":87,"x_max":709,"ha":760,"o":"m 87 0 l 87 994 l 394 994 q 554 975 502 994 q 666 879 624 949 q 709 707 709 809 q 640 488 709 573 q 403 404 572 404 l 195 404 l 195 0 l 87 0 m 195 521 l 406 521 q 551 566 505 521 q 598 702 598 611 q 575 803 598 761 q 520 861 552 845 q 403 877 488 877 l 195 877 l 195 521 "},"%":{"x_min":64,"x_max":939,"ha":1012,"o":"m 64 755 q 113 945 64 879 q 234 1011 162 1011 q 360 945 309 1011 q 412 748 412 879 q 360 552 412 620 q 235 485 309 485 q 114 551 164 485 q 64 755 64 618 m 237 927 q 175 887 200 927 q 151 747 151 847 q 175 608 151 647 q 239 569 200 569 q 300 608 275 569 q 325 747 325 648 q 299 886 325 846 q 237 927 274 927 m 237 -37 l 684 1011 l 765 1011 l 321 -37 l 237 -37 m 591 233 q 640 423 591 357 q 760 489 689 489 q 887 423 836 489 q 939 227 939 358 q 887 30 939 98 q 762 -37 835 -37 q 641 30 691 -37 q 591 233 591 97 m 765 405 q 702 365 727 405 q 678 225 678 325 q 703 86 678 125 q 767 47 728 47 q 827 87 802 47 q 852 226 852 127 q 827 365 852 325 q 765 405 802 405 "},"#":{"x_min":11,"x_max":617,"ha":633,"o":"m 56 -17 l 104 272 l 11 272 l 11 372 l 121 372 l 162 620 l 11 620 l 11 720 l 179 720 l 228 1011 l 311 1011 l 262 720 l 436 720 l 485 1011 l 569 1011 l 520 720 l 617 720 l 617 620 l 503 620 l 462 372 l 617 372 l 617 272 l 445 272 l 397 -17 l 313 -17 l 361 272 l 187 272 l 139 -17 l 56 -17 m 204 372 l 378 372 l 419 620 l 246 620 l 204 372 "},"_":{"x_min":-8,"x_max":639,"ha":633,"o":"m -8 -105 l 639 -105 l 639 -174 l -8 -174 l -8 -105 "},"+":{"x_min":62,"x_max":601,"ha":665,"o":"m 284 161 l 284 434 l 62 434 l 62 548 l 284 548 l 284 819 l 379 819 l 379 548 l 601 548 l 601 434 l 379 434 l 379 161 l 284 161 "},")":{"x_min":41,"x_max":309,"ha":379,"o":"m 113 -292 l 41 -292 q 207 359 207 34 q 190 571 207 465 q 145 763 173 676 q 41 1011 116 851 l 113 1011 q 309 360 309 690 q 250 1 309 171 q 113 -292 191 -169 "},"'":{"x_min":48,"x_max":162,"ha":218,"o":"m 73 642 l 48 828 l 48 994 l 162 994 l 162 828 l 135 642 l 73 642 "},"}":{"x_min":25,"x_max":348,"ha":380,"o":"m 348 416 l 348 305 q 282 280 309 303 q 244 212 255 257 q 232 41 233 167 q 227 -121 232 -81 q 193 -230 220 -186 q 142 -277 174 -263 q 56 -292 110 -292 l 25 -292 l 25 -186 l 42 -186 q 118 -160 99 -186 q 138 -45 138 -135 q 146 193 138 142 q 185 300 158 261 q 255 360 212 338 q 164 458 191 397 q 138 665 138 519 q 133 840 138 814 q 108 890 127 876 q 42 905 90 905 l 25 905 l 25 1011 l 56 1011 q 144 996 114 1011 q 191 954 173 981 q 224 865 217 916 q 232 677 232 814 q 244 507 233 552 q 282 439 256 462 q 348 416 309 416 "},"a":{"x_min":39,"x_max":583,"ha":633,"o":"m 458 88 q 353 9 407 36 q 241 -17 299 -17 q 93 38 148 -17 q 39 188 39 94 q 64 299 39 251 q 135 374 90 347 q 271 415 180 402 q 450 457 393 432 l 451 488 q 424 592 451 562 q 309 636 387 636 q 204 606 239 636 q 154 498 170 577 l 56 514 q 141 683 77 630 q 324 736 205 736 q 470 701 417 736 q 537 614 523 666 q 551 464 551 563 l 551 301 q 557 86 551 130 q 583 0 563 42 l 479 0 q 458 88 462 37 m 450 361 q 286 315 395 333 q 198 290 223 304 q 158 250 172 276 q 145 192 145 225 q 176 109 145 140 q 265 79 208 79 q 362 106 319 79 q 428 181 406 134 q 450 316 450 227 l 450 361 "},"T":{"x_min":28,"x_max":675,"ha":696,"o":"m 297 0 l 297 877 l 28 877 l 28 994 l 675 994 l 675 877 l 405 877 l 405 0 l 297 0 "},"=":{"x_min":62,"x_max":601,"ha":665,"o":"m 601 585 l 62 585 l 62 699 l 601 699 l 601 585 m 601 283 l 62 283 l 62 397 l 601 397 l 601 283 "},"N":{"x_min":85,"x_max":727,"ha":822,"o":"m 85 0 l 85 994 l 195 994 l 624 211 l 624 994 l 727 994 l 727 0 l 616 0 l 189 781 l 189 0 l 85 0 "},"2":{"x_min":33.90625,"x_max":573,"ha":633,"o":"m 573 117 l 573 0 l 34 0 q 77 159 31 71 q 242 367 122 247 q 426 583 383 507 q 470 726 470 660 q 425 850 470 802 q 315 898 380 898 q 200 846 245 898 q 156 697 156 794 l 53 710 q 134 925 63 853 q 318 998 204 998 q 507 913 443 998 q 572 722 572 829 q 521 540 572 628 q 331 308 471 453 q 215 183 241 216 q 173 117 189 150 l 573 117 "},"j":{"x_min":-54,"x_max":173,"ha":253,"o":"m 73 852 l 73 994 l 173 994 l 173 852 l 73 852 m -54 -279 l -35 -175 q 11 -185 -5 -185 q 58 -159 43 -185 q 73 -36 73 -134 l 73 720 l 173 720 l 173 -39 q 135 -239 173 -186 q 24 -292 97 -292 q -54 -279 -15 -292 "},"Z":{"x_min":24,"x_max":668,"ha":696,"o":"m 24 0 l 24 121 l 441 758 q 526 877 485 825 l 70 877 l 70 994 l 654 994 l 654 877 l 197 186 l 148 117 l 668 117 l 668 0 l 24 0 "},"u":{"x_min":71,"x_max":550,"ha":633,"o":"m 460 0 l 460 104 q 378 13 425 43 q 272 -17 331 -17 q 153 20 203 -17 q 87 116 104 58 q 71 273 71 173 l 71 720 l 171 720 l 171 320 q 182 171 171 208 q 223 110 193 133 q 292 88 253 88 q 409 147 363 88 q 449 333 449 197 l 449 720 l 550 720 l 550 0 l 460 0 "},"1":{"x_min":122,"x_max":422,"ha":633,"o":"m 422 0 l 322 0 l 322 778 q 229 694 287 737 q 122 630 170 651 l 122 748 q 268 864 204 795 q 357 998 331 932 l 422 998 l 422 0 "},"k":{"x_min":76,"x_max":564.5,"ha":570,"o":"m 76 0 l 76 994 l 176 994 l 176 429 l 411 720 l 542 720 l 316 452 l 564 0 l 441 0 l 245 367 l 176 285 l 176 0 l 76 0 "},"<":{"x_min":61,"x_max":601,"ha":665,"o":"m 61 433 l 61 549 l 601 826 l 601 704 l 173 490 l 601 274 l 601 153 l 61 433 "},"t":{"x_min":23,"x_max":311,"ha":317,"o":"m 297 109 l 311 1 q 236 -10 269 -10 q 151 10 183 -10 q 107 67 119 31 q 96 210 96 103 l 96 625 l 23 625 l 23 720 l 96 720 l 96 899 l 196 972 l 196 720 l 297 720 l 297 625 l 196 625 l 196 203 q 204 128 196 145 q 252 104 217 104 q 297 109 269 104 "},"W":{"x_min":16.84375,"x_max":1065.0625,"ha":1075,"o":"m 233 0 l 16 994 l 126 994 l 250 342 q 285 139 270 242 l 322 322 l 478 994 l 607 994 l 724 490 q 788 139 767 307 q 828 355 804 235 l 956 994 l 1065 994 l 842 0 l 737 0 l 565 757 l 539 873 q 515 757 527 808 l 342 0 l 233 0 "},"v":{"x_min":14.21875,"x_max":557.140625,"ha":570,"o":"m 237 0 l 14 720 l 120 720 l 246 289 q 284 144 268 215 q 321 280 297 200 l 453 720 l 557 720 l 334 0 l 237 0 "},">":{"x_min":61,"x_max":601,"ha":665,"o":"m 601 433 l 61 153 l 61 274 l 489 490 l 61 704 l 61 826 l 601 549 l 601 433 "},"s":{"x_min":35,"x_max":526,"ha":570,"o":"m 35 215 l 135 234 q 183 120 143 157 q 287 83 222 83 q 387 115 352 83 q 423 197 423 147 q 392 263 423 239 q 290 304 371 280 q 134 365 174 340 q 73 432 95 390 q 52 528 52 474 q 111 678 52 620 q 274 736 170 736 q 390 712 340 736 q 467 648 440 688 q 504 534 493 608 l 406 518 q 277 636 392 636 q 179 609 211 636 q 148 543 148 583 q 178 479 148 502 q 287 436 197 466 q 448 372 411 396 q 505 309 485 349 q 526 213 526 268 q 460 46 526 110 q 281 -17 394 -17 q 35 215 68 -17 "},"B":{"x_min":84,"x_max":700,"ha":760,"o":"m 84 0 l 84 994 l 390 994 q 537 965 483 994 q 626 875 591 936 q 661 740 661 814 q 631 616 661 671 q 547 528 601 561 q 659 440 618 502 q 700 287 700 378 q 663 129 700 197 q 564 30 626 61 q 394 0 502 0 l 84 0 m 192 576 l 368 576 q 467 585 438 576 q 532 633 509 599 q 555 724 555 667 q 534 814 555 778 q 479 863 513 849 q 355 877 444 877 l 192 877 l 192 576 m 192 117 l 395 117 q 494 129 462 117 q 564 187 540 146 q 589 288 589 227 q 565 384 589 345 q 503 441 542 423 q 380 459 464 459 l 192 459 l 192 117 "},"?":{"x_min":48,"x_max":574,"ha":633,"o":"m 261 245 l 259 281 q 292 446 259 379 q 390 571 316 492 q 456 659 440 625 q 472 731 472 692 q 424 858 472 806 q 314 911 376 911 q 206 862 250 911 q 150 710 162 814 l 48 724 q 133 939 62 867 q 314 1011 203 1011 q 499 934 425 1011 q 574 739 574 858 q 549 620 574 674 q 451 486 525 566 q 374 380 389 419 q 357 245 359 341 l 261 245 m 255 0 l 255 139 l 369 139 l 369 0 l 255 0 "},"H":{"x_min":87,"x_max":727,"ha":822,"o":"m 87 0 l 87 994 l 195 994 l 195 586 l 619 586 l 619 994 l 727 994 l 727 0 l 619 0 l 619 469 l 195 469 l 195 0 l 87 0 "},"c":{"x_min":44,"x_max":559,"ha":570,"o":"m 461 264 l 559 248 q 473 50 542 118 q 309 -17 405 -17 q 118 78 193 -17 q 44 360 44 173 q 119 642 44 548 q 314 736 195 736 q 468 679 405 736 q 549 508 531 622 l 452 490 q 402 599 437 563 q 317 636 367 636 q 195 570 243 636 q 147 362 147 504 q 193 148 147 214 q 312 83 239 83 q 409 127 369 83 q 461 264 450 171 "},"&":{"x_min":50,"x_max":734,"ha":760,"o":"m 541 117 q 308 -17 443 -17 q 118 73 187 -17 q 50 274 50 164 q 243 570 50 458 q 171 694 190 646 q 153 789 153 743 q 212 947 153 883 q 354 1011 271 1011 q 489 950 434 1011 q 544 798 544 890 q 390 556 544 657 l 536 329 q 575 468 560 387 l 679 440 q 607 226 652 312 q 734 74 662 137 l 666 -23 q 541 117 606 25 m 338 635 q 421 715 401 680 q 442 795 442 749 q 414 879 442 848 q 349 911 387 911 q 283 880 311 911 q 255 800 255 849 q 293 698 255 754 l 338 635 m 478 213 l 296 490 q 188 384 218 434 q 158 282 158 335 q 199 152 158 214 q 309 91 241 91 q 400 124 352 91 q 478 213 448 157 "},"I":{"x_min":109,"x_max":217,"ha":317,"o":"m 109 0 l 109 994 l 217 994 l 217 0 l 109 0 "},"G":{"x_min":63,"x_max":817,"ha":886,"o":"m 472 390 l 472 507 l 817 508 l 817 138 q 652 22 737 61 q 478 -17 568 -17 q 265 42 359 -17 q 117 216 172 102 q 63 492 63 331 q 117 775 63 655 q 261 953 172 896 q 471 1011 350 1011 q 628 977 561 1011 q 738 883 695 944 q 804 716 782 822 l 707 683 q 657 808 687 767 q 578 874 627 850 q 468 898 530 898 q 316 854 380 898 q 212 721 251 811 q 174 499 174 630 q 257 201 174 300 q 474 102 340 102 q 604 132 538 102 q 711 205 671 162 l 711 390 l 472 390 "},"(":{"x_min":69,"x_max":338,"ha":379,"o":"m 266 -292 q 130 -4 191 -175 q 69 360 69 166 q 266 1011 69 690 l 338 1011 q 233 763 261 851 q 187 571 204 676 q 171 359 171 465 q 338 -292 171 34 l 266 -292 "},"`":{"x_min":50,"x_max":259,"ha":379,"o":"m 259 810 l 178 810 l 50 1000 l 184 1000 l 259 810 "},"U":{"x_min":87,"x_max":728,"ha":822,"o":"m 620 994 l 728 994 l 728 419 q 699 182 728 275 q 597 36 671 90 q 408 -17 523 -17 q 167 79 247 -17 q 87 419 87 175 l 87 994 l 195 994 l 195 420 q 216 225 195 285 q 284 133 237 165 q 401 102 332 102 q 568 167 516 102 q 620 420 620 232 l 620 994 "},"F":{"x_min":96,"x_max":646,"ha":696,"o":"m 96 0 l 96 994 l 646 994 l 646 877 l 204 877 l 204 569 l 586 569 l 586 452 l 204 452 l 204 0 l 96 0 "},"r":{"x_min":74,"x_max":395,"ha":379,"o":"m 74 0 l 74 720 l 164 720 l 164 610 q 227 711 198 686 q 292 736 256 736 q 395 697 342 736 l 361 584 q 288 610 323 610 q 230 587 256 610 q 192 525 203 565 q 174 376 174 455 l 174 0 l 74 0 "},":":{"x_min":105,"x_max":219,"ha":317,"o":"m 105 581 l 105 720 l 219 720 l 219 581 l 105 581 m 105 0 l 105 139 l 219 139 l 219 0 l 105 0 "},"x":{"x_min":9,"x_max":562,"ha":570,"o":"m 9 0 l 224 373 l 26 720 l 151 720 l 242 552 q 283 472 266 505 q 327 549 307 516 l 426 720 l 546 720 l 342 381 l 562 0 l 439 0 l 317 224 l 285 283 l 130 0 l 9 0 "},"*":{"x_min":34,"x_max":402,"ha":443,"o":"m 34 812 l 59 908 q 188 842 147 870 q 177 1011 177 967 l 258 1011 q 245 843 256 946 q 376 908 301 877 l 402 812 q 263 773 330 783 q 359 645 297 738 l 292 588 q 215 733 261 639 q 143 588 174 638 l 78 645 q 170 773 139 739 q 34 812 97 790 "},"V":{"x_min":6.359375,"x_max":750.875,"ha":760,"o":"m 321 0 l 6 994 l 123 994 l 334 271 q 377 109 359 187 q 420 271 396 191 l 641 994 l 750 994 l 433 0 l 321 0 "},"h":{"x_min":74,"x_max":555,"ha":633,"o":"m 74 0 l 74 994 l 174 994 l 174 637 q 253 711 209 686 q 351 736 298 736 q 500 676 445 736 q 555 456 555 616 l 555 0 l 455 0 l 455 456 q 421 590 455 549 q 330 631 388 631 q 219 578 265 631 q 174 393 174 526 l 174 0 l 74 0 "},"0":{"x_min":45,"x_max":578,"ha":633,"o":"m 45 490 q 112 869 45 740 q 312 998 180 998 q 496 893 429 998 q 578 490 578 767 q 510 112 578 241 q 310 -17 443 -17 q 119 96 193 -17 q 45 490 45 210 m 147 490 q 193 165 147 248 q 313 83 240 83 q 429 166 382 83 q 476 490 476 250 q 429 815 476 733 q 307 898 382 898 q 193 814 239 898 q 147 490 147 730 "},".":{"x_min":105,"x_max":219,"ha":317,"o":"m 105 0 l 105 139 l 219 139 l 219 0 l 105 0 "},"@":{"x_min":60,"x_max":1113,"ha":1156,"o":"m 643 110 q 558 26 603 54 q 475 -2 513 -2 q 338 72 394 -2 q 272 302 272 161 q 320 525 272 416 q 433 684 368 633 q 562 736 499 736 q 652 705 608 736 q 727 612 696 674 l 746 716 l 846 716 l 765 260 q 749 154 749 165 q 761 122 749 135 q 788 110 772 110 q 873 157 818 110 q 965 295 928 205 q 1003 487 1003 386 q 950 706 1003 608 q 806 859 898 804 q 607 914 714 914 q 375 844 478 914 q 206 638 271 775 q 142 326 142 502 q 200 44 142 160 q 366 -131 258 -71 q 623 -192 475 -192 q 858 -136 757 -192 q 1013 13 960 -80 l 1113 13 q 1003 -143 1079 -69 q 835 -255 927 -218 q 622 -292 742 -292 q 324 -221 447 -292 q 130 -13 201 -150 q 60 317 60 123 q 137 689 60 522 q 334 934 215 856 q 612 1013 453 1013 q 851 947 745 1013 q 1021 758 957 882 q 1086 484 1086 634 q 967 127 1086 281 q 750 -3 867 -3 q 671 24 694 -3 q 643 110 647 51 m 374 294 q 410 149 374 200 q 493 98 447 98 q 580 137 533 98 q 662 262 628 177 q 695 439 695 346 q 658 585 695 535 q 566 636 620 636 q 483 600 525 636 q 407 473 441 565 q 374 294 374 382 "},"f":{"x_min":13,"x_max":359,"ha":317,"o":"m 102 0 l 102 625 l 13 625 l 13 720 l 102 720 l 102 796 q 119 923 102 881 q 173 988 137 966 q 265 1011 210 1011 q 359 998 308 1011 l 344 892 q 285 899 312 899 q 221 875 240 899 q 202 786 202 852 l 202 720 l 317 720 l 317 625 l 202 625 l 202 0 l 102 0 "},";":{"x_min":96.203125,"x_max":217,"ha":317,"o":"m 103 581 l 103 720 l 217 720 l 217 581 l 103 581 m 103 0 l 103 139 l 217 139 l 217 0 q 193 -126 217 -80 q 124 -197 169 -172 l 96 -144 q 142 -96 126 -128 q 159 0 157 -63 l 103 0 "},"i":{"x_min":74,"x_max":174,"ha":253,"o":"m 74 854 l 74 994 l 174 994 l 174 854 l 74 854 m 74 0 l 74 720 l 174 720 l 174 0 l 74 0 "},"6":{"x_min":41,"x_max":578,"ha":633,"o":"m 563 751 l 463 741 q 421 850 448 817 q 325 898 381 898 q 186 789 238 898 q 140 512 141 695 q 227 611 174 577 q 337 645 279 645 q 505 557 433 645 q 578 322 578 469 q 541 141 578 222 q 448 21 505 60 q 323 -17 392 -17 q 120 94 200 -17 q 41 465 41 205 q 122 875 41 753 q 332 998 204 998 q 487 934 424 998 q 563 751 549 871 m 156 321 q 206 148 156 213 q 324 83 257 83 q 429 144 383 83 q 476 314 476 206 q 429 478 476 420 q 317 537 383 537 q 204 478 252 537 q 156 321 156 420 "},"A":{"x_min":-1,"x_max":762,"ha":760,"o":"m -1 0 l 310 994 l 428 994 l 762 0 l 638 0 l 543 301 l 201 301 l 113 0 l -1 0 m 232 408 l 510 408 l 425 683 q 367 889 385 810 q 323 699 351 793 l 232 408 "},"n":{"x_min":74,"x_max":554,"ha":633,"o":"m 74 0 l 74 720 l 164 720 l 164 618 q 243 706 196 677 q 351 736 290 736 q 439 717 399 736 q 504 668 480 698 q 541 590 529 638 q 554 442 554 542 l 554 0 l 454 0 l 454 438 q 440 554 454 517 q 398 610 426 590 q 331 631 369 631 q 216 577 259 631 q 174 393 174 523 l 174 0 l 74 0 "},"O":{"x_min":58,"x_max":838,"ha":886,"o":"m 58 483 q 169 874 58 737 q 448 1011 281 1011 q 645 950 556 1011 q 786 772 734 889 q 838 495 838 656 q 737 136 838 275 q 448 -17 627 -17 q 157 140 267 -17 q 58 483 58 282 m 169 482 q 250 197 169 298 q 447 96 331 96 q 646 198 566 96 q 727 499 727 300 q 685 727 727 627 q 589 851 653 805 q 449 898 525 898 q 248 796 327 898 q 169 482 169 694 "},"3":{"x_min":45,"x_max":579,"ha":633,"o":"m 45 263 l 145 279 q 303 83 176 83 q 422 141 372 83 q 473 291 473 199 q 426 431 473 378 q 312 484 380 484 q 242 470 284 484 l 254 578 l 269 576 q 390 622 344 576 q 437 743 437 667 q 398 855 437 813 q 303 898 359 898 q 205 853 245 898 q 155 718 165 808 l 55 740 q 140 932 74 867 q 301 998 207 998 q 469 924 400 998 q 539 740 539 851 q 509 620 539 672 q 428 538 480 568 q 508 493 476 525 q 559 410 539 462 q 579 294 579 358 q 498 70 579 157 q 304 -17 417 -17 q 127 58 200 -17 q 45 263 55 134 "},"]":{"x_min":24,"x_max":245,"ha":317,"o":"m 245 -276 l 24 -276 l 24 -176 l 145 -176 l 145 894 l 24 894 l 24 994 l 245 994 l 245 -276 "},"m":{"x_min":75,"x_max":877,"ha":949,"o":"m 75 0 l 75 720 l 165 720 l 165 619 q 241 705 194 675 q 343 736 288 736 q 449 703 406 736 q 510 610 492 671 q 591 704 545 673 q 693 736 637 736 q 827 678 778 736 q 877 494 877 620 l 877 0 l 777 0 l 777 453 q 765 563 777 531 q 729 613 754 595 q 672 631 704 631 q 566 579 607 631 q 526 418 526 528 l 526 0 l 426 0 l 426 468 q 398 594 426 557 q 322 631 371 631 q 214 575 254 631 q 175 373 175 520 l 175 0 l 75 0 "},"9":{"x_min":45,"x_max":581,"ha":633,"o":"m 60 230 l 156 241 q 291 83 179 83 q 382 117 341 83 q 452 239 423 151 q 480 443 480 326 l 480 468 q 396 372 449 407 q 289 337 343 337 q 117 424 189 337 q 45 662 45 511 q 119 908 45 818 q 301 998 194 998 q 443 947 377 998 q 545 800 509 897 q 581 518 581 702 q 542 200 581 313 q 437 35 503 87 q 289 -17 371 -17 q 134 46 196 -17 q 60 230 72 109 m 470 669 q 422 836 470 775 q 312 898 374 898 q 197 832 248 898 q 147 658 147 767 q 195 503 147 561 q 310 445 243 445 q 423 503 377 445 q 470 669 470 561 "},"l":{"x_min":71,"x_max":171,"ha":253,"o":"m 71 0 l 71 994 l 171 994 l 171 0 l 71 0 "},"8":{"x_min":45,"x_max":581,"ha":633,"o":"m 199 539 q 108 616 139 566 q 78 742 78 667 q 144 926 78 855 q 311 998 211 998 q 480 925 413 998 q 548 738 548 852 q 518 616 548 666 q 428 539 488 566 q 541 444 501 509 q 581 283 581 379 q 504 66 581 150 q 313 -17 427 -17 q 121 66 198 -17 q 45 286 45 150 q 85 451 45 386 q 199 539 126 516 m 180 746 q 218 629 180 672 q 313 586 257 586 q 407 628 368 586 q 446 739 446 671 q 406 853 446 809 q 312 898 366 898 q 219 854 258 898 q 180 746 180 811 m 147 286 q 196 138 147 194 q 313 83 245 83 q 430 137 382 83 q 479 282 479 191 q 429 430 479 374 q 310 486 380 486 q 194 430 242 486 q 147 286 147 374 "},"p":{"x_min":74,"x_max":587,"ha":633,"o":"m 74 -276 l 74 720 l 167 720 l 167 625 q 242 710 200 684 q 336 736 283 736 q 462 694 406 736 q 552 568 518 653 q 587 365 587 484 q 510 82 587 181 q 329 -17 433 -17 q 243 6 283 -17 q 174 73 203 30 l 174 -276 l 74 -276 m 165 355 q 212 149 165 215 q 324 83 258 83 q 436 151 388 83 q 484 363 484 220 q 437 572 484 504 q 324 640 390 640 q 215 567 264 640 q 165 355 165 494 "},"4":{"x_min":13,"x_max":577,"ha":633,"o":"m 366 0 l 366 238 l 13 238 l 13 350 l 384 994 l 466 994 l 466 350 l 577 350 l 577 238 l 466 238 l 466 0 l 366 0 m 366 350 l 366 798 l 111 350 l 366 350 "},"R":{"x_min":87,"x_max":806,"ha":822,"o":"m 87 0 l 87 994 l 448 994 q 615 966 561 994 q 704 873 669 938 q 739 723 739 808 q 680 540 739 610 q 510 451 621 470 q 579 397 555 424 q 663 270 627 340 l 806 0 l 670 0 l 562 206 q 466 370 499 328 q 404 426 434 411 q 319 441 374 441 l 195 441 l 195 0 l 87 0 m 195 555 l 427 555 q 542 573 503 555 q 604 630 581 591 q 628 722 628 670 q 583 840 628 797 q 452 884 539 884 l 195 884 l 195 555 "},"o":{"x_min":36,"x_max":589,"ha":633,"o":"m 36 359 q 114 641 36 546 q 312 736 192 736 q 509 641 430 736 q 589 366 589 546 q 511 77 589 172 q 312 -17 433 -17 q 114 78 193 -17 q 36 359 36 173 m 139 359 q 189 151 139 219 q 315 83 240 83 q 435 152 385 83 q 486 359 486 221 q 435 567 486 499 q 309 636 384 636 q 188 567 238 636 q 139 359 139 498 "},"5":{"x_min":45,"x_max":586,"ha":633,"o":"m 45 260 l 150 271 q 205 129 162 175 q 305 83 248 83 q 428 148 376 83 q 480 327 480 213 q 430 492 480 433 q 304 551 380 551 q 219 525 259 551 q 157 454 180 500 l 63 469 l 142 981 l 547 981 l 547 864 l 221 864 l 178 596 q 332 659 250 659 q 510 571 434 659 q 586 336 586 484 q 510 87 586 191 q 307 -17 434 -17 q 128 56 201 -17 q 45 260 55 129 "}}}
